<svg width="20" height="20" viewBox="0 0 20 20" fill="none" xmlns="http://www.w3.org/2000/svg">
<path fill-rule="evenodd" clip-rule="evenodd" d="M2.06928 6.04349C2.31069 7.18576 3.33763 8.0593 4.54531 8.0593C5.78749 8.0593 6.78869 7.18576 7.02301 6.04349H19.4861C19.7628 6.04349 20 5.80633 20 5.52965C20 5.25297 19.7628 5.01582 19.4861 5.01582H7.02134C6.77993 3.87354 5.75299 3 4.54531 3C3.33763 3 2.31069 3.87354 2.06928 5.01582H0.513835C0.237155 5.01582 0 5.25297 0 5.52965C0 5.80633 0.237155 6.04349 0.513835 6.04349H2.06928ZM3.04337 5.51897C3.0491 4.69385 3.71883 4.02767 4.54531 4.02767C5.37535 4.02767 6.04729 4.69961 6.04729 5.52965C6.04729 6.35969 5.37535 7.03163 4.54531 7.03163C3.71908 7.03163 3.0495 6.36585 3.04337 5.54107L3.04348 5.52965L3.04337 5.51897ZM14.0711 7.86168C15.2787 7.86168 16.3057 8.73522 16.5471 9.87749H19.4862C19.7628 9.87749 20 10.1146 20 10.3913C20 10.668 19.7628 10.9052 19.4862 10.9052H16.5488C16.3144 12.0474 15.3132 12.921 14.0711 12.921C12.8634 12.921 11.8364 12.0474 11.595 10.9052H0.513835C0.237155 10.9052 0 10.668 0 10.3913C0 10.1146 0.237155 9.87749 0.513835 9.87749H11.595C11.8364 8.73522 12.8634 7.86168 14.0711 7.86168ZM14.0711 11.8933C13.2441 11.8933 12.5741 11.2264 12.5691 10.4006L12.5692 10.3913L12.5691 10.3821C12.5741 9.5563 13.2441 8.88935 14.0711 8.88935C14.9011 8.88935 15.573 9.56129 15.573 10.3913C15.573 11.2214 14.9011 11.8933 14.0711 11.8933ZM7.03448 15.8064H19.4861C19.7628 15.8064 20 15.5692 20 15.2925C20 15.0158 19.7628 14.7787 19.4861 14.7787H7.02134C6.77993 13.6364 5.75299 12.7629 4.54531 12.7629C3.34738 12.7629 2.32728 13.5927 2.07528 14.7392H0.513835C0.237155 14.7392 0 14.9763 0 15.2925C0 15.5692 0.237155 15.8064 0.513835 15.8064H2.06928C2.31069 16.9486 3.33763 17.8222 4.54531 17.8222C5.78749 17.8222 6.81882 16.9486 7.03448 15.8064ZM3.04536 15.3714C3.08633 16.1647 3.74173 16.7945 4.54531 16.7945C5.37535 16.7945 6.04729 16.1226 6.04729 15.2925C6.04729 14.4625 5.37535 13.7905 4.54531 13.7905C3.72768 13.7905 3.06346 14.4425 3.04378 15.2554C3.04861 15.2954 3.04901 15.3342 3.04536 15.3714Z" fill="#443E37"/>
</svg>
