<svg width="23" height="24" viewBox="0 0 23 24" fill="none" xmlns="http://www.w3.org/2000/svg">
    <mask id="wu3dawud1a" fill="#fff">
        <path fill-rule="evenodd" clip-rule="evenodd" d="M12 13.5a6 6 0 1 0 0-12 6 6 0 0 0 0 12zM0 22.214c0-4.26 5.148-7.714 11.5-7.714S23 17.954 23 22.214V23.5H0v-1.286z"/>
    </mask>
    <path d="M23 23.5v2h2v-2h-2zm-23 0h-2v2h2v-2zm16-16a4 4 0 0 1-4 4v4a8 8 0 0 0 8-8h-4zm-4-4a4 4 0 0 1 4 4h4a8 8 0 0 0-8-8v4zm-4 4a4 4 0 0 1 4-4v-4a8 8 0 0 0-8 8h4zm4 4a4 4 0 0 1-4-4H4a8 8 0 0 0 8 8v-4zm-.5 1c-3.518 0-6.793.953-9.246 2.599C-.186 16.736-2 19.213-2 22.214h4c0-1.259.76-2.638 2.482-3.794 1.71-1.146 4.184-1.92 7.018-1.92v-4zM25 22.214c0-3-1.814-5.478-4.254-7.115-2.453-1.646-5.728-2.599-9.246-2.599v4c2.834 0 5.309.774 7.018 1.92C20.239 19.575 21 20.955 21 22.214h4zm0 1.286v-1.286h-4V23.5h4zm-25 2h23v-4H0v4zm-2-3.286V23.5h4v-1.286h-4z" fill="#443E37" mask="url(#wu3dawud1a)"/>
</svg>
